<svg width="18" height="25" viewBox="0 0 18 25" fill="none" xmlns="http://www.w3.org/2000/svg">
<path fill-rule="evenodd" clip-rule="evenodd" d="M12.1183 0.0625167L12.1127 0.0625H5.88719L5.88154 0.0625167H4.62496C4.10719 0.0625167 3.68746 0.48225 3.68746 1.00002C3.68746 1.51778 4.10719 1.93752 4.62496 1.93752H4.94969V8.2639C-0.614944 10.8944 -1.41884 18.5649 3.5827 22.2744L3.95145 22.5479C6.94979 24.7717 11.0501 24.7717 14.0484 22.5479L14.4172 22.2744C19.4187 18.5649 18.6148 10.8944 13.0502 8.2639V1.93752H13.375C13.8927 1.93752 14.3125 1.51778 14.3125 1.00002C14.3125 0.48225 13.8927 0.0625167 13.375 0.0625167H12.1183ZM3.87103 11.3125H14.1289C13.5636 10.7185 12.8636 10.2197 12.0344 9.86218C11.513 9.63735 11.1752 9.1239 11.1752 8.55604V1.93752H6.82469V8.55604C6.82469 9.1239 6.48692 9.63735 5.96546 9.86218C5.13625 10.2197 4.43632 10.7185 3.87103 11.3125ZM6.49996 17.25C5.80961 17.25 5.24996 17.8097 5.24996 18.5C5.24996 19.1904 5.80961 19.75 6.49996 19.75C7.19032 19.75 7.74996 19.1904 7.74996 18.5C7.74996 17.8097 7.19032 17.25 6.49996 17.25ZM8.99996 16C8.99996 15.3097 9.55961 14.75 10.25 14.75C10.9403 14.75 11.5 15.3097 11.5 16C11.5 16.6904 10.9403 17.25 10.25 17.25C9.55961 17.25 8.99996 16.6904 8.99996 16Z" fill="white"/>
</svg>
