<svg width="52" height="43" viewBox="0 0 52 43" fill="none" xmlns="http://www.w3.org/2000/svg">
<path fill-rule="evenodd" clip-rule="evenodd" d="M25.9999 0.374268L44.184 0.8884C47.3971 0.979246 50.0546 3.41838 50.42 6.61188C51.2288 13.6809 51.2288 20.8191 50.42 27.8882C50.0546 31.0817 47.397 33.5208 44.184 33.6116L29.125 34.0374V39.125H38.5C39.5355 39.125 40.375 39.9645 40.375 41C40.375 42.0356 39.5355 42.875 38.5 42.875H13.5C12.4644 42.875 11.625 42.0356 11.625 41C11.625 39.9645 12.4644 39.125 13.5 39.125H22.875V34.0374L7.81586 33.6116C4.60281 33.5208 1.94527 31.0817 1.57988 27.8882C0.771063 20.8191 0.771063 13.6809 1.57988 6.61188C1.94527 3.41838 4.60281 0.979246 7.81586 0.888401L25.9999 0.374268ZM8.49997 25.375C7.46444 25.375 6.62497 26.2145 6.62497 27.25C6.62497 28.2856 7.46444 29.125 8.49997 29.125H43.5C44.5355 29.125 45.375 28.2856 45.375 27.25C45.375 26.2145 44.5355 25.375 43.5 25.375H8.49997Z" fill="#299764"/>
</svg>
