<svg width="26" height="20" viewBox="0 0 26 20" fill="none" xmlns="http://www.w3.org/2000/svg">
<path fill-rule="evenodd" clip-rule="evenodd" d="M20.125 7.0625C18.5345 7.0625 17.1607 8.17506 16.83 9.73088L16.8023 9.86139C16.7174 10.261 16.7024 10.6724 16.7581 11.0771L16.9493 12.468C16.8779 12.4766 16.8065 12.4856 16.7351 12.4949C15.6354 12.6377 14.8125 13.5744 14.8125 14.6832V17.5668C14.8125 18.6757 15.6354 19.6123 16.7351 19.7551C18.9856 20.0474 21.2645 20.0474 23.515 19.7551C24.6147 19.6123 25.4375 18.6757 25.4375 17.5668V14.6832C25.4375 13.5744 24.6147 12.6377 23.515 12.4949C23.4436 12.4856 23.3722 12.4766 23.3008 12.468L23.492 11.0771C23.5477 10.6724 23.5327 10.261 23.4478 9.86139L23.42 9.73088C23.0894 8.17506 21.7156 7.0625 20.125 7.0625ZM21.4301 12.3081L21.6345 10.8217C21.6606 10.6318 21.6536 10.4387 21.6137 10.2511L21.586 10.1206C21.4394 9.43079 20.8303 8.9375 20.125 8.9375C19.4198 8.9375 18.8107 9.43079 18.6641 10.1206L18.6364 10.2511C18.5965 10.4387 18.5895 10.6318 18.6156 10.8217L18.82 12.3081C19.6895 12.2649 20.5606 12.2649 21.4301 12.3081Z" fill="white"/>
<path d="M22.8647 5.47618C22.8966 5.68614 22.6637 5.83784 22.4739 5.74263C21.7629 5.38602 20.9633 5.1875 20.125 5.1875C17.6491 5.1875 15.5106 6.91932 14.996 9.34115L14.9683 9.47165C14.8693 9.93716 14.8324 10.413 14.858 10.887C14.8684 11.0807 14.7771 11.2664 14.6203 11.3805C13.5938 12.1271 12.9375 13.3365 12.9375 14.6832V16.4567C12.9375 16.6622 12.772 16.8296 12.5664 16.8309C10.2297 16.8455 7.89263 16.7694 5.56037 16.6026L3.66786 16.4672C2.45722 16.3806 1.45867 15.4856 1.24052 14.2916C0.705948 11.3659 0.614431 8.37641 0.969034 5.42346L1.30964 2.58707C1.47406 1.2179 2.63559 0.1875 4.0146 0.1875H6.87905C8.11946 0.1875 9.12501 1.19305 9.12501 2.43346C9.12501 2.47443 9.15823 2.50765 9.1992 2.50765H20.0903C21.4161 2.50765 22.5453 3.47099 22.7543 4.78021L22.8344 5.282C22.8447 5.3467 22.8548 5.41143 22.8647 5.47618Z" fill="white"/>
</svg>
