<svg width="124" height="20" viewBox="0 0 124 20" fill="none" xmlns="http://www.w3.org/2000/svg">
<path d="M10.7208 2.49686C10.3997 1.9434 9.60042 1.9434 9.27927 2.49686L7.01756 6.39462C6.85892 6.66802 6.58471 6.8546 6.27216 6.90181L2.03356 7.54199C1.32166 7.64952 1.07194 8.54836 1.62636 9.00769L4.78394 11.6237C5.07623 11.8659 5.21366 12.2478 5.14266 12.6207L4.31668 16.9583C4.18611 17.644 4.90594 18.1768 5.52356 17.8516L9.51473 15.75C9.81851 15.5901 10.1816 15.5901 10.4854 15.75L14.4765 17.8516C15.0942 18.1768 15.814 17.644 15.6834 16.9583L14.8574 12.6207C14.7864 12.2478 14.9239 11.8659 15.2162 11.6237L18.3737 9.00769C18.9282 8.54836 18.6784 7.64952 17.9665 7.54199L13.7279 6.90181C13.4154 6.8546 13.1412 6.66802 12.9825 6.39462L10.7208 2.49686Z" fill="#299764"/>
<path d="M36.7208 2.49686C36.3997 1.9434 35.6004 1.9434 35.2793 2.49686L33.0176 6.39462C32.8589 6.66802 32.5847 6.8546 32.2722 6.90181L28.0336 7.54199C27.3217 7.64952 27.0719 8.54836 27.6264 9.00769L30.7839 11.6237C31.0762 11.8659 31.2137 12.2478 31.1427 12.6207L30.3167 16.9583C30.1861 17.644 30.9059 18.1768 31.5236 17.8516L35.5147 15.75C35.8185 15.5901 36.1816 15.5901 36.4854 15.75L40.4765 17.8516C41.0942 18.1768 41.814 17.644 41.6834 16.9583L40.8574 12.6207C40.7864 12.2478 40.9239 11.8659 41.2162 11.6237L44.3737 9.00769C44.9282 8.54836 44.6784 7.64952 43.9665 7.54199L39.7279 6.90181C39.4154 6.8546 39.1412 6.66802 38.9825 6.39462L36.7208 2.49686Z" fill="#299764"/>
<path d="M62.7208 2.49686C62.3997 1.9434 61.6004 1.9434 61.2793 2.49686L59.0176 6.39462C58.8589 6.66802 58.5847 6.8546 58.2722 6.90181L54.0336 7.54199C53.3217 7.64952 53.0719 8.54836 53.6264 9.00769L56.7839 11.6237C57.0762 11.8659 57.2137 12.2478 57.1427 12.6207L56.3167 16.9583C56.1861 17.644 56.9059 18.1768 57.5236 17.8516L61.5147 15.75C61.8185 15.5901 62.1816 15.5901 62.4854 15.75L66.4765 17.8516C67.0942 18.1768 67.814 17.644 67.6834 16.9583L66.8574 12.6207C66.7864 12.2478 66.9239 11.8659 67.2162 11.6237L70.3737 9.00769C70.9282 8.54836 70.6784 7.64952 69.9665 7.54199L65.7279 6.90181C65.4154 6.8546 65.1412 6.66802 64.9825 6.39462L62.7208 2.49686Z" fill="#299764"/>
<path d="M88.7208 2.49686C88.3997 1.9434 87.6004 1.9434 87.2793 2.49686L85.0176 6.39462C84.8589 6.66802 84.5847 6.8546 84.2722 6.90181L80.0336 7.54199C79.3217 7.64952 79.0719 8.54836 79.6264 9.00769L82.7839 11.6237C83.0762 11.8659 83.2137 12.2478 83.1427 12.6207L82.3167 16.9583C82.1861 17.644 82.9059 18.1768 83.5236 17.8516L87.5147 15.75C87.8185 15.5901 88.1816 15.5901 88.4854 15.75L92.4765 17.8516C93.0942 18.1768 93.814 17.644 93.6834 16.9583L92.8574 12.6207C92.7864 12.2478 92.9239 11.8659 93.2162 11.6237L96.3737 9.00769C96.9282 8.54836 96.6784 7.64952 95.9665 7.54199L91.7279 6.90181C91.4154 6.8546 91.1412 6.66802 90.9825 6.39462L88.7208 2.49686Z" fill="#299764"/>
<path d="M114.721 2.49686C114.4 1.9434 113.6 1.9434 113.279 2.49686L111.018 6.39462C110.859 6.66802 110.585 6.8546 110.272 6.90181L106.034 7.54199C105.322 7.64952 105.072 8.54836 105.626 9.00769L108.784 11.6237C109.076 11.8659 109.214 12.2478 109.143 12.6207L108.317 16.9583C108.186 17.644 108.906 18.1768 109.524 17.8516L113.515 15.75C113.819 15.5901 114.182 15.5901 114.485 15.75L118.477 17.8516C119.094 18.1768 119.814 17.644 119.683 16.9583L118.857 12.6207C118.786 12.2478 118.924 11.8659 119.216 11.6237L122.374 9.00769C122.928 8.54836 122.678 7.64952 121.967 7.54199L117.728 6.90181C117.415 6.8546 117.141 6.66802 116.983 6.39462L114.721 2.49686Z" fill="#299764"/>
</svg>
