<svg width="22" height="22" viewBox="0 0 22 22" fill="none" xmlns="http://www.w3.org/2000/svg">
<path d="M11 1.14575C11.3797 1.14575 11.6875 1.45356 11.6875 1.83325V2.74992C11.6875 3.12961 11.3797 3.43742 11 3.43742C10.6203 3.43742 10.3125 3.12961 10.3125 2.74992V1.83325C10.3125 1.45356 10.6203 1.14575 11 1.14575Z" fill="white"/>
<path d="M11 5.72908C8.08898 5.72908 5.72915 8.08892 5.72915 10.9999C5.72915 13.9109 8.08898 16.2708 11 16.2708C13.911 16.2708 16.2708 13.9109 16.2708 10.9999C16.2708 8.08892 13.911 5.72908 11 5.72908Z" fill="white"/>
<path d="M5.00432 4.03199C4.73583 3.76351 4.30053 3.76351 4.03204 4.03199C3.76356 4.30048 3.76356 4.73578 4.03204 5.00426L4.68023 5.65244C4.94871 5.92093 5.38401 5.92093 5.6525 5.65244C5.92098 5.38396 5.92098 4.94866 5.6525 4.68017L5.00432 4.03199Z" fill="white"/>
<path d="M20.8541 10.9999C20.8541 11.3796 20.5463 11.6874 20.1666 11.6874H19.25C18.8703 11.6874 18.5625 11.3796 18.5625 10.9999C18.5625 10.6202 18.8703 10.3124 19.25 10.3124H20.1666C20.5463 10.3124 20.8541 10.6202 20.8541 10.9999Z" fill="white"/>
<path d="M17.9679 5.00426C18.2364 4.73577 18.2364 4.30047 17.9679 4.03198C17.6994 3.7635 17.2641 3.7635 16.9956 4.03198L16.3475 4.68016C16.079 4.94865 16.079 5.38395 16.3475 5.65244C16.6159 5.92092 17.0512 5.92092 17.3197 5.65244L17.9679 5.00426Z" fill="white"/>
<path d="M11 18.5624C11.3797 18.5624 11.6875 18.8702 11.6875 19.2499V20.1666C11.6875 20.5463 11.3797 20.8541 11 20.8541C10.6203 20.8541 10.3125 20.5463 10.3125 20.1666V19.2499C10.3125 18.8702 10.6203 18.5624 11 18.5624Z" fill="white"/>
<path d="M17.3198 16.3474C17.0513 16.0789 16.616 16.0789 16.3475 16.3474C16.079 16.6159 16.079 17.0512 16.3475 17.3197L16.9957 17.9679C17.2642 18.2363 17.6995 18.2363 17.968 17.9679C18.2365 17.6994 18.2365 17.2641 17.968 16.9956L17.3198 16.3474Z" fill="white"/>
<path d="M3.43748 10.9999C3.43748 11.3796 3.12968 11.6874 2.74998 11.6874H1.83331C1.45362 11.6874 1.14581 11.3796 1.14581 10.9999C1.14581 10.6202 1.45362 10.3124 1.83331 10.3124H2.74998C3.12968 10.3124 3.43748 10.6202 3.43748 10.9999Z" fill="white"/>
<path d="M5.65244 17.3197C5.92092 17.0512 5.92092 16.6159 5.65244 16.3474C5.38395 16.0789 4.94865 16.0789 4.68016 16.3474L4.03198 16.9956C3.7635 17.2641 3.7635 17.6994 4.03198 17.9679C4.30047 18.2363 4.73577 18.2363 5.00425 17.9679L5.65244 17.3197Z" fill="white"/>
</svg>
